<?xml version="1.0" encoding="UTF-8"?>
<svg width="17px" height="16px" viewBox="0 0 17 16" version="1.1" xmlns="http://www.w3.org/2000/svg" xmlns:xlink="http://www.w3.org/1999/xlink">
    <!-- Generator: sketchtool 40.1 (33804) - http://www.bohemiancoding.com/sketch -->
    <title>E0440EBB-FC9F-4946-9347-F5E241341374</title>
    <desc>Created with sketchtool.</desc>
    <defs></defs>
    <g id="curriculum-vitae" stroke="none" stroke-width="1" fill="none" fill-rule="evenodd">
        <g id="Focus-start-//-Главная-страница" transform="translate(-1301.000000, -206.000000)" fill="#B2BBC6">
            <g id="content">
                <g id="FEED" transform="translate(210.000000, 155.000000)">
                    <g id="Search" transform="translate(891.000000, 39.000000)">
                        <path d="M206.25,23.5134 C203.346,23.5134 200.992,21.1594 200.992,18.2554 C200.992,15.3514 203.346,12.9964 206.25,12.9964 C209.154,12.9964 211.508,15.3514 211.508,18.2554 C211.508,21.1594 209.154,23.5134 206.25,23.5134 M215.907,27.1464 L211.048,22.2574 C211.954,21.1734 212.5,19.7784 212.5,18.2554 C212.5,14.8034 209.702,12.0054 206.25,12.0054 C202.798,12.0054 200,14.8034 200,18.2554 C200,21.7064 202.798,24.5054 206.25,24.5054 C207.818,24.5054 209.248,23.9234 210.345,22.9694 L215.2,27.8534 C215.395,28.0484 215.712,28.0484 215.907,27.8534 C216.102,27.6584 216.102,27.3414 215.907,27.1464" id="Loupe"></path>
                    </g>
                </g>
            </g>
        </g>
    </g>
</svg>