<?xml version="1.0" encoding="UTF-8"?>
<svg width="7px" height="13px" viewBox="0 0 7 13" version="1.1" xmlns="http://www.w3.org/2000/svg" xmlns:xlink="http://www.w3.org/1999/xlink">
    <!-- Generator: sketchtool 40.1 (33804) - http://www.bohemiancoding.com/sketch -->
    <title>CB3503DD-B871-48E4-9B5A-7601C64A7508</title>
    <desc>Created with sketchtool.</desc>
    <defs></defs>
    <g id="Page-1" stroke="none" stroke-width="1" fill="none" fill-rule="evenodd">
        <g id="UI-Kit" transform="translate(-464.000000, -341.000000)" fill="#1E8BC3">
            <g id="Blue" transform="translate(289.000000, 51.000000)">
                <g id="Manipulators" transform="translate(161.000000, 278.000000)">
                    <g id="Blue-Manipulator-2">
                        <g id="Toggle-1">
                            <path d="M14.0020724,18.2055265 C13.9863454,17.992248 14.0601307,17.7737373 14.2234286,17.6108571 L19.6108571,12.2234286 C19.908,11.9255238 20.3902857,11.9255238 20.6881905,12.2234286 C20.9860952,12.5205714 20.9860952,13.0028571 20.6881905,13.3007619 L15.7831429,18.2058095 L20.6881905,23.1108571 C20.9860952,23.408 20.9860952,23.8902857 20.6881905,24.1881905 C20.539619,24.3367619 20.3445714,24.4114286 20.1495238,24.4114286 C19.9552381,24.4114286 19.7601905,24.3367619 19.6108571,24.1881905 L14.2234286,18.8007619 C14.0601307,18.6374641 13.9863454,18.4187647 14.0020724,18.2055265 Z" id="Arrow"></path>
                        </g>
                    </g>
                </g>
            </g>
        </g>
    </g>
</svg>                  </g>
                </g>
            </g>
        </g>
    </g>
</svg>