<?xml version="1.0" encoding="UTF-8"?>
<svg width="13px" height="13px" viewBox="0 0 13 13" version="1.1" xmlns="http://www.w3.org/2000/svg" xmlns:xlink="http://www.w3.org/1999/xlink">
    <!-- Generator: sketchtool 40.1 (33804) - http://www.bohemiancoding.com/sketch -->
    <title>2C2D646F-191A-4821-BA8B-B3D48ADAD83F</title>
    <desc>Created with sketchtool.</desc>
    <defs></defs>
    <g id="Page-1" stroke="none" stroke-width="1" fill="none" fill-rule="evenodd">
        <g id="UI-Kit" transform="translate(-565.000000, -634.000000)" fill="#FFFFFF">
            <g id="Blue" transform="translate(289.000000, 51.000000)">
                <g id="Popups" transform="translate(4.000000, 568.000000)">
                    <g id="Blue-Rounded-Popup">
                        <path d="M276.979044,19.9788098 L271.645161,19.9788098 C270.908803,19.977867 270.311985,20.5746849 270.311985,21.3119859 C270.311985,21.6796936 270.460954,22.0134591 270.702321,22.2548262 C270.942745,22.4952504 271.276511,22.6442192 271.645161,22.645162 L276.979044,22.645162 L276.979044,27.9788093 C276.978102,28.7151675 277.574919,29.3119854 278.312221,29.3119854 C278.679928,29.3119854 279.013694,29.1630166 279.255061,28.9216495 C279.495485,28.6812252 279.644454,28.3474598 279.645397,27.9788093 L279.645397,22.645162 L284.978808,22.645162 C285.716109,22.645162 286.312927,22.0483442 286.311984,21.3119859 C286.311984,20.5746849 285.715166,19.977867 284.978808,19.9788098 L279.645397,19.9788098 L279.645397,14.6451626 C279.645397,13.9078615 279.048579,13.3110436 278.312221,13.3119865 C277.574919,13.3119865 276.978102,13.9088044 276.979044,14.6451626 L276.979044,19.9788098 Z" id="Close" transform="translate(278.311985, 21.311985) rotate(-316.000000) translate(-278.311985, -21.311985) "></path>
                    </g>
                </g>
            </g>
        </g>
    </g>
</svg>