<?xml version="1.0" encoding="UTF-8"?>
<svg width="20px" height="15px" viewBox="0 0 20 15" version="1.1" xmlns="http://www.w3.org/2000/svg" xmlns:xlink="http://www.w3.org/1999/xlink">
    <!-- Generator: sketchtool 40.1 (33804) - http://www.bohemiancoding.com/sketch -->
    <title>16DC9F74-6AF1-4020-B532-144DFC095ED8</title>
    <desc>Created with sketchtool.</desc>
    <defs></defs>
    <g id="Symbols" stroke="none" stroke-width="1" fill="none" fill-rule="evenodd">
        <g id="Blue-Toggle-Listed" transform="translate(-8.000000, -10.000000)" fill="#1E8BC3">
            <g id="Lines">
                <g transform="translate(18.000000, 18.000000) rotate(-315.000000) translate(-18.000000, -18.000000) translate(10.000000, 10.000000)">
                    <path d="M15.307619,8.84285714 C15.6055238,9.1407619 15.6055238,9.62228571 15.307619,9.92019048 L9.92019048,15.307619 C9.77161905,15.4569524 9.57657143,15.5308571 9.38152381,15.5308571 C9.18647619,15.5308571 8.99142857,15.4569524 8.84285714,15.307619 C8.54495238,15.0104762 8.54495238,14.5281905 8.84285714,14.2302857 L14.2302857,8.84285714 C14.5281905,8.54495238 15.0104762,8.54495238 15.307619,8.84285714 L15.307619,8.84285714 Z" id="Path"></path>
                    <path d="M15.307619,5.61009524 L5.61009524,15.307619 C5.46152381,15.4569524 5.26647619,15.5308571 5.07142857,15.5308571 C4.87638095,15.5308571 4.68209524,15.4569524 4.5327619,15.307619 C4.23561905,15.0104762 4.23561905,14.5281905 4.5327619,14.2302857 L14.2302857,4.5327619 C14.5281905,4.23561905 15.0104762,4.23561905 15.307619,4.5327619 C15.6055238,4.83066667 15.6055238,5.31295238 15.307619,5.61009524 L15.307619,5.61009524 Z" id="Path"></path>
                    <path d="M0.223428571,6.68819048 C-0.0744761905,6.39028571 -0.0744761905,5.908 0.223428571,5.61085714 L5.61085714,0.223428571 C5.908,-0.0744761905 6.39028571,-0.0744761905 6.68819048,0.223428571 C6.98609524,0.520571429 6.98609524,1.00285714 6.68819048,1.3007619 L1.3007619,6.68819048 C1.15142857,6.8367619 0.956380952,6.91142857 0.762095238,6.91142857 C0.567047619,6.91142857 0.372,6.8367619 0.223428571,6.68819048 L0.223428571,6.68819048 Z" id="Path"></path>
                    <path d="M0.223428571,9.92095238 L9.92095238,0.223428571 C10.2180952,-0.0744761905 10.700381,-0.0744761905 10.9982857,0.223428571 C11.2954286,0.520571429 11.2954286,1.00285714 10.9982857,1.3007619 L1.3007619,10.9982857 C1.15142857,11.1468571 0.956380952,11.2215238 0.762095238,11.2215238 C0.567047619,11.2215238 0.372,11.1468571 0.223428571,10.9982857 C-0.0744761905,10.700381 -0.0744761905,10.2180952 0.223428571,9.92095238 L0.223428571,9.92095238 Z" id="Path"></path>
                    <path d="M1.3007619,14.2302857 C1.00285714,13.9331429 1.00285714,13.4508571 1.3007619,13.1529524 L13.1529524,1.3007619 C13.4508571,1.00285714 13.9331429,1.00285714 14.2302857,1.3007619 C14.5281905,1.59790476 14.5281905,2.08019048 14.2302857,2.37809524 L2.37809524,14.2302857 C2.2287619,14.379619 2.03447619,14.4535238 1.83942857,14.4535238 C1.64438095,14.4535238 1.44933333,14.379619 1.3007619,14.2302857 L1.3007619,14.2302857 Z" id="Path"></path>
                </g>
            </g>
        </g>
    </g>
</svg>